<svg width="180" height="180" viewBox="0 0 180 180" fill="none" xmlns="http://www.w3.org/2000/svg">
<path d="M90 15.2999C48.75 15.2999 15 48.9749 15 90.45C15 127.95 42.45 159.075 78.3 164.7V112.2H59.25V90.45H78.3V73.8749C78.3 55.0499 89.475 44.6999 106.65 44.6999C114.825 44.6999 123.375 46.1249 123.375 46.1249V64.6499H113.925C104.625 64.6499 101.7 70.4249 101.7 76.35V90.45H122.55L119.175 112.2H101.7V164.7C119.373 161.908 135.467 152.891 147.074 139.275C158.682 125.66 165.041 108.342 165 90.45C165 48.9749 131.25 15.2999 90 15.2999Z" fill="#D9D1CF" fill-opacity="0.87"/>
</svg>
