<svg width="160" height="160" viewBox="0 0 160 160" fill="none" xmlns="http://www.w3.org/2000/svg">
<path fill-rule="evenodd" clip-rule="evenodd" d="M80 0C124.184 0 160 36.7194 160 82.0234C160 118.255 137.104 148.992 105.336 159.848C101.28 160.656 99.84 158.094 99.84 155.91C99.84 153.206 99.936 144.374 99.936 133.398C99.936 125.75 97.376 120.759 94.504 118.215C112.32 116.183 131.04 109.246 131.04 77.7422C131.04 68.7822 127.936 61.4706 122.8 55.7266C123.632 53.6546 126.376 45.3116 122.016 34.0156C122.016 34.0156 115.312 31.8178 100.04 42.4258C93.648 40.6098 86.8 39.6961 80 39.6641C73.2 39.6961 66.36 40.6098 59.976 42.4258C44.688 31.8178 37.968 34.0156 37.968 34.0156C33.624 45.3116 36.368 53.6546 37.192 55.7266C32.08 61.4706 28.952 68.7822 28.952 77.7422C28.952 109.166 47.632 116.209 65.4 118.281C63.112 120.329 61.04 123.942 60.32 129.246C55.76 131.342 44.176 134.97 37.04 122.434C37.04 122.434 32.808 114.553 24.776 113.977C24.776 113.977 16.976 113.873 24.232 118.961C24.232 118.961 29.472 121.481 33.112 130.961C33.112 130.961 37.808 145.601 60.064 140.641C60.104 147.497 60.176 153.958 60.176 155.91C60.176 158.078 58.704 160.615 54.712 159.855C22.92 149.015 0 118.263 0 82.0234C0 36.7194 35.824 0 80 0Z" fill="#D9D1CF" fill-opacity="0.87"/>
</svg>
