<svg width="198" height="198" viewBox="0 0 198 198" fill="none" xmlns="http://www.w3.org/2000/svg">
<path d="M161.157 25.0133H37.6722C36.0806 24.9387 34.4898 25.1787 32.9911 25.7197C31.4923 26.2607 30.115 27.0919 28.9379 28.1658C27.7609 29.2397 26.8071 30.5352 26.1314 31.9781C25.4557 33.421 25.0712 34.983 25 36.5747V160.329C25.0932 163.659 26.4583 166.829 28.8149 169.185C31.1715 171.541 34.3408 172.907 37.6722 173H161.157C164.395 172.856 167.449 171.448 169.662 169.079C171.876 166.711 173.072 163.57 172.997 160.329V36.5747C173.023 35.0255 172.733 33.4873 172.144 32.0542C171.555 30.6212 170.679 29.3237 169.57 28.241C168.461 27.1585 167.143 26.3139 165.697 25.7588C164.25 25.2038 162.705 24.9501 161.157 25.0133ZM71.2489 148.397H49.6969V82.4508H71.2489V148.397ZM60.9817 72.4614C59.4777 72.5139 57.9792 72.2547 56.5803 71.7003C55.1812 71.1459 53.912 70.3082 52.8523 69.2399C51.7926 68.1715 50.9652 66.8956 50.4222 65.4922C49.8792 64.0888 49.6323 62.5883 49.6969 61.085C49.6304 59.5653 49.8823 58.0487 50.4365 56.6322C50.9906 55.2156 51.8347 53.9305 52.9147 52.8593C53.9947 51.7881 55.2866 50.9545 56.7076 50.4119C58.1288 49.8693 59.6476 49.6297 61.1667 49.7085C62.6706 49.6562 64.1692 49.9152 65.5681 50.4696C66.9671 51.024 68.2364 51.8617 69.296 52.9301C70.3558 53.9985 71.1832 55.2744 71.7261 56.6777C72.2692 58.0811 72.5161 59.5816 72.4514 61.085C72.5179 62.6046 72.266 64.1213 71.7119 65.5378C71.1577 66.9544 70.3136 68.2395 69.2337 69.3106C68.1537 70.3819 66.8618 71.2155 65.4407 71.758C64.0196 72.3007 62.5008 72.5402 60.9817 72.4614ZM148.392 148.397H126.748V112.326C126.748 103.724 123.695 97.8044 116.018 97.8044C113.633 97.8247 111.313 98.5822 109.376 99.9733C107.438 101.364 105.978 103.321 105.196 105.574C104.594 107.263 104.343 109.056 104.456 110.846V148.397H83.1812V82.4508H104.456V91.6999C106.347 88.225 109.162 85.3412 112.59 83.3655C116.018 81.3908 119.925 80.4019 123.88 80.5082C137.847 80.5082 148.392 89.7576 148.392 109.458V148.397Z" fill="#D9D1CF" fill-opacity="0.87"/>
</svg>
